<svg xmlns="http://www.w3.org/2000/svg" viewBox="0 0 640 640" role="img" aria-labelledby="title desc">
  <title id="title">Droobi</title><desc id="desc">The blue water-drop guide for One Water OS</desc>
  <defs><linearGradient id="b" x1="0" y1="0" x2="0" y2="1"><stop stop-color="#8fd3f6"/><stop offset=".58" stop-color="#3fa8e8"/><stop offset="1" stop-color="#176fae"/></linearGradient></defs>
  <rect width="640" height="640" rx="96" fill="#eff8fd"/>
  <path d="M320 64C289 177 166 272 166 382c0 92 69 164 154 164s154-72 154-164C474 272 351 177 320 64Z" fill="url(#b)" stroke="#0b5f91" stroke-width="8"/>
  <path d="M225 330q49-35 92 0M323 330q43-35 92 0" fill="none" stroke="#153049" stroke-width="13" stroke-linecap="round"/>
  <ellipse cx="272" cy="374" rx="47" ry="56" fill="#fff"/><ellipse cx="368" cy="374" rx="47" ry="56" fill="#fff"/>
  <circle cx="280" cy="380" r="29" fill="#2e6fa8"/><circle cx="360" cy="380" r="29" fill="#2e6fa8"/>
  <circle cx="284" cy="384" r="15" fill="#10253c"/><circle cx="356" cy="384" r="15" fill="#10253c"/>
  <circle cx="273" cy="368" r="8" fill="#fff"/><circle cx="345" cy="368" r="8" fill="#fff"/>
  <path d="M255 455q65 72 130 0-65 32-130 0Z" fill="#10253c"/><ellipse cx="320" cy="480" rx="31" ry="14" fill="#ed8478"/>
  <circle cx="320" cy="528" r="28" fill="#f2c94c" stroke="#b7891f" stroke-width="5"/><path d="M320 508c-6 13-15 20-15 29a15 15 0 0 0 30 0c0-9-9-16-15-29Z" fill="#10253c"/>
</svg>
