<svg xmlns="http://www.w3.org/2000/svg" width="1200" height="590" viewBox="0 0 1200 590" role="img" aria-labelledby="t d"><title id="t">False merge blast radius</title><desc id="d">A false identity merge contaminates maintenance operations analytics and an agent recommendation.</desc><rect width="1200" height="590" rx="28" fill="#fff7ed"/><g font-family="Arial"><text x="52" y="62" font-size="28" font-weight="700" fill="#102f49">THE ERROR STARTS ONCE. THE CONSEQUENCES MULTIPLY.</text><rect x="70" y="190" width="270" height="200" rx="20" fill="#a92f2f"/><text x="102" y="230" font-size="14" font-weight="700" fill="#ffd7d0">FALSE EQUIVALENCE</text><text x="102" y="275" font-size="23" font-weight="700" fill="#fff">Permanent P-104</text><text x="181" y="309" font-size="20" fill="#fff">=</text><text x="102" y="346" font-size="23" font-weight="700" fill="#fff">Temporary bypass</text><g stroke="#f47c2c" stroke-width="6" fill="none"><path d="M340 235H455"/><path d="M340 275H455"/><path d="M340 315H455"/><path d="M340 355H455"/></g><g fill="#fff" stroke="#e1a06f" stroke-width="3"><rect x="455" y="110" width="300" height="90" rx="15"/><rect x="455" y="220" width="300" height="90" rx="15"/><rect x="455" y="330" width="300" height="90" rx="15"/><rect x="455" y="440" width="300" height="90" rx="15"/></g><g font-size="14" font-weight="700" fill="#a7431d"><text x="480" y="140">MAINTENANCE</text><text x="480" y="250">OPERATIONS</text><text x="480" y="360">RELIABILITY</text><text x="480" y="470">AGENT CONTEXT</text></g><g font-size="17" fill="#102f49"><text x="480" y="174">Wrong work history</text><text x="480" y="284">Combined alarm history</text><text x="480" y="394">Fabricated failure rate</text><text x="480" y="504">Wrong action and location</text></g><g stroke="#a92f2f" stroke-width="4"><path d="M755 155H855"/><path d="M755 265H855"/><path d="M755 375H855"/><path d="M755 485H855"/></g><g fill="#102f49"><rect x="855" y="110" width="290" height="90" rx="15"/><rect x="855" y="220" width="290" height="90" rx="15"/><rect x="855" y="330" width="290" height="90" rx="15"/><rect x="855" y="440" width="290" height="90" rx="15"/></g><g font-size="17" font-weight="700" fill="#fff"><text x="880" y="163">Planner acts on wrong asset</text><text x="880" y="273">Operator misreads condition</text><text x="880" y="383">Investment ranking changes</text><text x="880" y="493">Human must stop workflow</text></g></g></svg>
