<svg xmlns="http://www.w3.org/2000/svg" viewBox="0 0 1200 675" role="img"><title>A question becomes a bounded evidence package</title><desc>A hospital impact question passes identity resolution mapping query validation provenance and permission steps before an evidence package reaches an agent</desc>
<defs><linearGradient id="g" x2="1" y2="1"><stop stop-color="#f7fbfd"/><stop offset="1" stop-color="#e5eef3"/></linearGradient><filter id="d"><feDropShadow dx="0" dy="7" stdDeviation="8" flood-opacity=".13"/></filter></defs>
<rect width="1200" height="675" rx="28" fill="url(#g)"/><rect x="42" y="38" width="1116" height="599" rx="24" fill="#fff" stroke="#aebfc9" filter="url(#d)"/>
<rect x="42" y="38" width="1116" height="72" rx="24" fill="#10243a"/><rect x="42" y="84" width="1116" height="26" fill="#10243a"/>
<text x="78" y="84" fill="#fff" font-family="Arial" font-size="28" font-weight="700">A question becomes a bounded evidence package</text>
<style>.h{font:700 23px Arial;fill:#10243a}.p{font:18px Arial;fill:#334b5c}.s{font:700 16px Arial;fill:#fff}.b{fill:#fff;stroke:#91a7b4;stroke-width:2}.x{fill:#b4651f}.l{stroke:#607b8c;stroke-width:4;fill:none}.q{stroke:#b4651f;stroke-width:4;stroke-dasharray:10 8;fill:none}</style><path class="q" d="M120 340H1080"/><g class="b"><rect x="75" y="270" width="150" height="140" rx="18"/><rect x="250" y="270" width="150" height="140" rx="18"/><rect x="425" y="270" width="150" height="140" rx="18"/><rect x="600" y="270" width="150" height="140" rx="18"/><rect x="775" y="270" width="150" height="140" rx="18"/><rect x="950" y="270" width="165" height="140" rx="18"/></g><text class="h" x="105" y="315">1 ASK</text><text class="p" x="100" y="365">hospital impact</text><text class="h" x="275" y="315">2 ID</text><text class="p" x="270" y="365">resolve P-104</text><text class="h" x="450" y="315">3 MAP</text><text class="p" x="445" y="365">reach sources</text><text class="h" x="625" y="315">4 QUERY</text><text class="p" x="620" y="365">follow path</text><text class="h" x="800" y="315">5 CHECK</text><text class="p" x="795" y="365">time + shape</text><text class="h" x="975" y="315">6 PACKAGE</text><text class="p" x="970" y="365">evidence + limits</text></svg>