<svg xmlns="http://www.w3.org/2000/svg" width="1200" height="610" viewBox="0 0 1200 610" role="img" aria-labelledby="t d"><title id="t">Five-record evidence wall</title><desc id="d">Five P-104 records remain separate while their evidence conflicts are reviewed.</desc><rect width="1200" height="610" rx="28" fill="#f3efe5"/><text x="54" y="62" font-family="Arial" font-size="28" font-weight="700" fill="#102f49">THE LABEL MATCHES. THE EVIDENCE DOES NOT.</text><path d="M70 98H1130" stroke="#d1c6ae" stroke-width="3"/><g font-family="Arial"><g transform="translate(55 125)"><rect width="205" height="350" rx="8" fill="#fff" stroke="#1d7b75" stroke-width="4"/><text x="18" y="34" font-size="14" font-weight="700" fill="#1d7b75">GIS ASSET REGISTER</text><text x="18" y="76" font-size="26" font-weight="700" fill="#102f49">P-104</text><text x="18" y="116" font-size="15" fill="#344b59">North High Service</text><text x="18" y="146" font-size="15" fill="#344b59">Vertical turbine pump</text><text x="18" y="176" font-size="15" fill="#344b59">Asset GIS-8831</text><rect x="18" y="260" width="160" height="42" rx="21" fill="#dff3ed"/><text x="39" y="287" font-size="14" font-weight="700" fill="#17644e" textLength="125" lengthAdjust="spacingAndGlyphs">STRONG CANDIDATE</text></g><g transform="translate(280 125)"><rect width="205" height="350" rx="8" fill="#fff" stroke="#1d7b75" stroke-width="4"/><text x="18" y="34" font-size="14" font-weight="700" fill="#1d7b75">MAINTENANCE</text><text x="18" y="76" font-size="26" font-weight="700" fill="#102f49">PUMP-104</text><text x="18" y="116" font-size="15" fill="#344b59">North High Service</text><text x="18" y="146" font-size="15" fill="#344b59">Serial 88K21</text><text x="18" y="176" font-size="15" fill="#344b59">Seal history</text><rect x="18" y="260" width="160" height="42" rx="21" fill="#dff3ed"/><text x="39" y="287" font-size="14" font-weight="700" fill="#17644e">CORROBORATES</text></g><g transform="translate(505 125)"><rect width="205" height="350" rx="8" fill="#fff" stroke="#437caa" stroke-width="4"/><text x="18" y="34" font-size="14" font-weight="700" fill="#437caa">SCADA POINT</text><text x="18" y="76" font-size="26" font-weight="700" fill="#102f49">P104_RUN</text><text x="18" y="116" font-size="15" fill="#344b59">North High Service</text><text x="18" y="146" font-size="15" fill="#344b59">Run status signal</text><text x="18" y="176" font-size="15" fill="#344b59">Monitors equipment</text><rect x="18" y="260" width="145" height="42" rx="21" fill="#e4eff8"/><text x="39" y="287" font-size="14" font-weight="700" fill="#315e82" textLength="110" lengthAdjust="spacingAndGlyphs">RELATED RECORD</text></g><g transform="translate(730 125)"><rect width="205" height="350" rx="8" fill="#fff" stroke="#437caa" stroke-width="4"/><text x="18" y="34" font-size="14" font-weight="700" fill="#437caa">WORK ORDER</text><text x="18" y="76" font-size="26" font-weight="700" fill="#102f49">WO-4821</text><text x="18" y="116" font-size="15" fill="#344b59">North High Service</text><text x="18" y="146" font-size="15" fill="#344b59">Seal replacement</text><text x="18" y="176" font-size="15" fill="#344b59">Concerns PUMP-104</text><rect x="18" y="260" width="145" height="42" rx="21" fill="#e4eff8"/><text x="39" y="287" font-size="14" font-weight="700" fill="#315e82" textLength="110" lengthAdjust="spacingAndGlyphs">RELATED RECORD</text></g><g transform="translate(955 125)"><rect width="205" height="350" rx="8" fill="#fff8f3" stroke="#dc632e" stroke-width="4"/><text x="18" y="34" font-size="14" font-weight="700" fill="#a7431d">FIELD NOTE</text><text x="18" y="76" font-size="24" font-weight="700" fill="#102f49">P-104 bypass</text><text x="18" y="116" font-size="15" fill="#344b59">South Booster yard</text><text x="18" y="146" font-size="15" fill="#344b59">Temporary diesel pump</text><text x="18" y="176" font-size="15" fill="#344b59">Operator nickname</text><rect x="18" y="250" width="170" height="58" rx="10" fill="#ffe1d3"/><text x="34" y="275" font-size="14" font-weight="700" fill="#a7431d">CONTRADICTS</text><text x="34" y="296" font-size="13" fill="#6c321b">Place + equipment</text></g></g><text x="58" y="550" font-family="Arial" font-size="20" font-weight="700" fill="#102f49">Keep the cards separate until a reviewed relationship connects them.</text></svg>
