<svg xmlns="http://www.w3.org/2000/svg" viewBox="0 0 1200 675" role="img"><title>A governed bridge resolves identity without erasing source keys</title><desc>GIS OF-0007 permit NPDES-7 and work code OUT7 pass through a reviewed crosswalk to stable Outfall O-7 while source links remain</desc>
<defs><linearGradient id="g" x2="1" y2="1"><stop stop-color="#f7fbfd"/><stop offset="1" stop-color="#e5eef3"/></linearGradient><filter id="d"><feDropShadow dx="0" dy="7" stdDeviation="8" flood-opacity=".13"/></filter></defs>
<rect width="1200" height="675" rx="28" fill="url(#g)"/><rect x="42" y="38" width="1116" height="599" rx="24" fill="#fff" stroke="#aebfc9" filter="url(#d)"/>
<rect x="42" y="38" width="1116" height="72" rx="24" fill="#10243a"/><rect x="42" y="84" width="1116" height="26" fill="#10243a"/>
<text x="78" y="84" fill="#fff" font-family="Arial" font-size="28" font-weight="700">A governed bridge resolves identity without erasing source keys</text>
<style>.h{font:700 23px Arial;fill:#10243a}.p{font:18px Arial;fill:#334b5c}.s{font:700 16px Arial;fill:#fff}.b{fill:#fff;stroke:#91a7b4;stroke-width:2}.x{fill:#15766f}.l{stroke:#607b8c;stroke-width:4;fill:none}.q{stroke:#15766f;stroke-width:4;stroke-dasharray:10 8;fill:none}</style><text class="h" x="95" y="195">GIS: OF-0007</text><text class="h" x="95" y="335">PERMIT: NPDES-7</text><text class="h" x="95" y="475">WORK: OUT7</text><path class="l" d="M300 190H445M300 330H445M300 470H445"/><rect class="x" x="445" y="155" width="310" height="360" rx="26"/><text class="s" x="505" y="215">REVIEWED CROSSWALK</text><text class="s" x="500" y="280">scope + evidence</text><text class="s" x="500" y="330">owner + version</text><text class="s" x="500" y="380">conflict queue</text><text class="s" x="500" y="430">source provenance</text><path class="l" d="M755 335H900"/><rect class="b" x="900" y="245" width="220" height="180" rx="20"/><text class="h" x="940" y="305">Outfall O-7</text><text class="p" x="940" y="350">stable RDF resource</text><text class="p" x="940" y="390">local IDs retained</text></svg>